<mxfile host="app.diagrams.net" agent="Mozilla/5.0 (Windows NT 10.0; Win64; x64) AppleWebKit/537.36 (KHTML, like Gecko) Chrome/128.0.0.0 Safari/537.36" version="24.7.12" pages="6">
  <diagram name="wireframe for example webpage" id="Sp6cAcsMj1LJQVN4GSf3">
    <mxGraphModel dx="2501" dy="866" grid="1" gridSize="10" guides="1" tooltips="1" connect="1" arrows="1" fold="1" page="1" pageScale="1" pageWidth="827" pageHeight="1169" math="0" shadow="0">
      <root>
        <mxCell id="0" />
        <mxCell id="1" parent="0" />
        <mxCell id="AZJ5ZLYv0wKqi_fWB7lU-9" value="" style="strokeWidth=1;shadow=0;dashed=0;align=center;html=1;shape=mxgraph.mockup.containers.browserWindow;rSize=0;strokeColor=#666666;strokeColor2=#008cff;strokeColor3=#c4c4c4;mainText=,;recursiveResize=0;" parent="1" vertex="1">
          <mxGeometry x="-80" y="180" width="577.43" height="790" as="geometry" />
        </mxCell>
        <mxCell id="AZJ5ZLYv0wKqi_fWB7lU-75" value="" style="image;aspect=fixed;html=1;points=[];align=center;fontSize=12;image=img/lib/azure2/general/Image.svg;" parent="AZJ5ZLYv0wKqi_fWB7lU-9" vertex="1">
          <mxGeometry x="5.08" y="240" width="567.27" height="390" as="geometry" />
        </mxCell>
        <mxCell id="AZJ5ZLYv0wKqi_fWB7lU-10" value="&lt;font style=&quot;font-size: 7px;&quot;&gt;Member registration form&lt;/font&gt;" style="strokeWidth=1;shadow=0;dashed=0;align=center;html=1;shape=mxgraph.mockup.containers.anchor;fontSize=17;fontColor=#666666;align=left;whiteSpace=wrap;" parent="AZJ5ZLYv0wKqi_fWB7lU-9" vertex="1">
          <mxGeometry x="60" y="12" width="110" height="26" as="geometry" />
        </mxCell>
        <mxCell id="AZJ5ZLYv0wKqi_fWB7lU-11" value="https://www.draw.io" style="strokeWidth=1;shadow=0;dashed=0;align=center;html=1;shape=mxgraph.mockup.containers.anchor;rSize=0;fontSize=17;fontColor=#666666;align=left;" parent="AZJ5ZLYv0wKqi_fWB7lU-9" vertex="1">
          <mxGeometry x="130" y="60" width="250" height="26" as="geometry" />
        </mxCell>
        <mxCell id="AZJ5ZLYv0wKqi_fWB7lU-17" value="&lt;font style=&quot;font-size: 16px;&quot;&gt;&lt;b&gt;Member registration form&lt;/b&gt;&lt;/font&gt;" style="text;html=1;align=center;verticalAlign=middle;whiteSpace=wrap;rounded=0;" parent="AZJ5ZLYv0wKqi_fWB7lU-9" vertex="1">
          <mxGeometry x="20" y="152.5" width="220" height="30" as="geometry" />
        </mxCell>
        <mxCell id="AZJ5ZLYv0wKqi_fWB7lU-19" value="" style="rounded=0;whiteSpace=wrap;html=1;" parent="AZJ5ZLYv0wKqi_fWB7lU-9" vertex="1">
          <mxGeometry x="112.5" y="282.5" width="110" height="20" as="geometry" />
        </mxCell>
        <mxCell id="AZJ5ZLYv0wKqi_fWB7lU-28" value="" style="rounded=0;whiteSpace=wrap;html=1;" parent="AZJ5ZLYv0wKqi_fWB7lU-9" vertex="1">
          <mxGeometry x="112.5" y="322.5" width="110" height="20" as="geometry" />
        </mxCell>
        <mxCell id="AZJ5ZLYv0wKqi_fWB7lU-29" value="First name:&amp;nbsp;" style="text;html=1;align=left;verticalAlign=middle;whiteSpace=wrap;rounded=0;" parent="AZJ5ZLYv0wKqi_fWB7lU-9" vertex="1">
          <mxGeometry x="32.5" y="280" width="80" height="30" as="geometry" />
        </mxCell>
        <mxCell id="AZJ5ZLYv0wKqi_fWB7lU-38" value="Last name:&amp;nbsp;" style="text;html=1;align=left;verticalAlign=middle;whiteSpace=wrap;rounded=0;" parent="AZJ5ZLYv0wKqi_fWB7lU-9" vertex="1">
          <mxGeometry x="32.5" y="315" width="80" height="30" as="geometry" />
        </mxCell>
        <mxCell id="AZJ5ZLYv0wKqi_fWB7lU-39" value="Gender:" style="text;html=1;align=left;verticalAlign=middle;whiteSpace=wrap;rounded=0;" parent="AZJ5ZLYv0wKqi_fWB7lU-9" vertex="1">
          <mxGeometry x="31.25" y="353.75" width="80" height="30" as="geometry" />
        </mxCell>
        <mxCell id="AZJ5ZLYv0wKqi_fWB7lU-40" value="" style="ellipse;whiteSpace=wrap;html=1;aspect=fixed;" parent="AZJ5ZLYv0wKqi_fWB7lU-9" vertex="1">
          <mxGeometry x="111.25" y="360" width="12.5" height="12.5" as="geometry" />
        </mxCell>
        <mxCell id="AZJ5ZLYv0wKqi_fWB7lU-41" value="" style="ellipse;whiteSpace=wrap;html=1;aspect=fixed;" parent="AZJ5ZLYv0wKqi_fWB7lU-9" vertex="1">
          <mxGeometry x="158.75" y="360" width="12.5" height="12.5" as="geometry" />
        </mxCell>
        <mxCell id="AZJ5ZLYv0wKqi_fWB7lU-42" value="" style="ellipse;whiteSpace=wrap;html=1;aspect=fixed;" parent="AZJ5ZLYv0wKqi_fWB7lU-9" vertex="1">
          <mxGeometry x="211.25" y="362.5" width="12.5" height="12.5" as="geometry" />
        </mxCell>
        <mxCell id="AZJ5ZLYv0wKqi_fWB7lU-45" value="&lt;font style=&quot;font-size: 8px;&quot;&gt;Male&lt;/font&gt;" style="text;html=1;align=center;verticalAlign=middle;whiteSpace=wrap;rounded=0;" parent="AZJ5ZLYv0wKqi_fWB7lU-9" vertex="1">
          <mxGeometry x="121.25" y="357.5" width="40" height="17.5" as="geometry" />
        </mxCell>
        <mxCell id="AZJ5ZLYv0wKqi_fWB7lU-46" value="&lt;font style=&quot;font-size: 8px;&quot;&gt;Female&lt;/font&gt;" style="text;html=1;align=center;verticalAlign=middle;whiteSpace=wrap;rounded=0;" parent="AZJ5ZLYv0wKqi_fWB7lU-9" vertex="1">
          <mxGeometry x="171.25" y="357.5" width="40" height="17.5" as="geometry" />
        </mxCell>
        <mxCell id="AZJ5ZLYv0wKqi_fWB7lU-47" value="&lt;font style=&quot;font-size: 8px;&quot;&gt;unknow&lt;/font&gt;" style="text;html=1;align=center;verticalAlign=middle;whiteSpace=wrap;rounded=0;" parent="AZJ5ZLYv0wKqi_fWB7lU-9" vertex="1">
          <mxGeometry x="225" y="357.5" width="40" height="17.5" as="geometry" />
        </mxCell>
        <mxCell id="AZJ5ZLYv0wKqi_fWB7lU-48" value="" style="rounded=0;whiteSpace=wrap;html=1;" parent="AZJ5ZLYv0wKqi_fWB7lU-9" vertex="1">
          <mxGeometry x="113.75" y="395" width="111.25" height="20" as="geometry" />
        </mxCell>
        <mxCell id="AZJ5ZLYv0wKqi_fWB7lU-49" value="Age range:" style="text;html=1;align=left;verticalAlign=middle;whiteSpace=wrap;rounded=0;" parent="AZJ5ZLYv0wKqi_fWB7lU-9" vertex="1">
          <mxGeometry x="31.25" y="395" width="80" height="30" as="geometry" />
        </mxCell>
        <mxCell id="AZJ5ZLYv0wKqi_fWB7lU-50" value="" style="rounded=0;whiteSpace=wrap;html=1;" parent="AZJ5ZLYv0wKqi_fWB7lU-9" vertex="1">
          <mxGeometry x="202.5" y="395" width="22.5" height="20" as="geometry" />
        </mxCell>
        <mxCell id="AZJ5ZLYv0wKqi_fWB7lU-51" value="" style="triangle;whiteSpace=wrap;html=1;rotation=90;" parent="AZJ5ZLYv0wKqi_fWB7lU-9" vertex="1">
          <mxGeometry x="205.63" y="396.25" width="16.25" height="20" as="geometry" />
        </mxCell>
        <mxCell id="AZJ5ZLYv0wKqi_fWB7lU-52" value="&lt;font style=&quot;font-size: 8px;&quot;&gt;18-29&lt;/font&gt;" style="text;html=1;align=center;verticalAlign=middle;whiteSpace=wrap;rounded=0;" parent="AZJ5ZLYv0wKqi_fWB7lU-9" vertex="1">
          <mxGeometry x="120" y="397.5" width="40" height="17.5" as="geometry" />
        </mxCell>
        <mxCell id="AZJ5ZLYv0wKqi_fWB7lU-53" value="" style="rounded=0;whiteSpace=wrap;html=1;" parent="AZJ5ZLYv0wKqi_fWB7lU-9" vertex="1">
          <mxGeometry x="115" y="240" width="110" height="20" as="geometry" />
        </mxCell>
        <mxCell id="AZJ5ZLYv0wKqi_fWB7lU-54" value="Email:&amp;nbsp;" style="text;html=1;align=left;verticalAlign=middle;whiteSpace=wrap;rounded=0;" parent="AZJ5ZLYv0wKqi_fWB7lU-9" vertex="1">
          <mxGeometry x="35" y="235" width="80" height="30" as="geometry" />
        </mxCell>
        <mxCell id="AZJ5ZLYv0wKqi_fWB7lU-55" value="" style="rounded=0;whiteSpace=wrap;html=1;" parent="AZJ5ZLYv0wKqi_fWB7lU-9" vertex="1">
          <mxGeometry x="113.75" y="200" width="110" height="20" as="geometry" />
        </mxCell>
        <mxCell id="AZJ5ZLYv0wKqi_fWB7lU-56" value="Username:&amp;nbsp;" style="text;html=1;align=left;verticalAlign=middle;whiteSpace=wrap;rounded=0;" parent="AZJ5ZLYv0wKqi_fWB7lU-9" vertex="1">
          <mxGeometry x="32.5" y="197.5" width="80" height="30" as="geometry" />
        </mxCell>
        <mxCell id="AZJ5ZLYv0wKqi_fWB7lU-57" value="" style="rounded=0;whiteSpace=wrap;html=1;" parent="AZJ5ZLYv0wKqi_fWB7lU-9" vertex="1">
          <mxGeometry x="115" y="445" width="110" height="20" as="geometry" />
        </mxCell>
        <mxCell id="AZJ5ZLYv0wKqi_fWB7lU-58" value="Phone:&amp;nbsp;" style="text;html=1;align=left;verticalAlign=middle;whiteSpace=wrap;rounded=0;" parent="AZJ5ZLYv0wKqi_fWB7lU-9" vertex="1">
          <mxGeometry x="31.25" y="440" width="80" height="30" as="geometry" />
        </mxCell>
        <mxCell id="AZJ5ZLYv0wKqi_fWB7lU-59" value="Submit" style="rounded=1;whiteSpace=wrap;html=1;" parent="AZJ5ZLYv0wKqi_fWB7lU-9" vertex="1">
          <mxGeometry x="30.75" y="610" width="66" height="20" as="geometry" />
        </mxCell>
        <mxCell id="AZJ5ZLYv0wKqi_fWB7lU-62" value="Industry:" style="text;html=1;align=left;verticalAlign=middle;whiteSpace=wrap;rounded=0;" parent="AZJ5ZLYv0wKqi_fWB7lU-9" vertex="1">
          <mxGeometry x="31.25" y="480" width="80" height="30" as="geometry" />
        </mxCell>
        <mxCell id="AZJ5ZLYv0wKqi_fWB7lU-63" value="" style="rounded=0;whiteSpace=wrap;html=1;" parent="AZJ5ZLYv0wKqi_fWB7lU-9" vertex="1">
          <mxGeometry x="115" y="485" width="15" height="15" as="geometry" />
        </mxCell>
        <mxCell id="AZJ5ZLYv0wKqi_fWB7lU-64" value="" style="rounded=0;whiteSpace=wrap;html=1;" parent="AZJ5ZLYv0wKqi_fWB7lU-9" vertex="1">
          <mxGeometry x="183.75" y="487.5" width="15" height="15" as="geometry" />
        </mxCell>
        <mxCell id="AZJ5ZLYv0wKqi_fWB7lU-65" value="&lt;font style=&quot;font-size: 8px;&quot;&gt;IT&lt;/font&gt;" style="text;html=1;align=center;verticalAlign=middle;whiteSpace=wrap;rounded=0;" parent="AZJ5ZLYv0wKqi_fWB7lU-9" vertex="1">
          <mxGeometry x="131.25" y="486.25" width="40" height="17.5" as="geometry" />
        </mxCell>
        <mxCell id="AZJ5ZLYv0wKqi_fWB7lU-66" value="&lt;font style=&quot;font-size: 8px;&quot;&gt;Finance&lt;/font&gt;" style="text;html=1;align=center;verticalAlign=middle;whiteSpace=wrap;rounded=0;" parent="AZJ5ZLYv0wKqi_fWB7lU-9" vertex="1">
          <mxGeometry x="200" y="485" width="40" height="17.5" as="geometry" />
        </mxCell>
        <mxCell id="AZJ5ZLYv0wKqi_fWB7lU-23" value="Reset" style="rounded=1;whiteSpace=wrap;html=1;" parent="AZJ5ZLYv0wKqi_fWB7lU-9" vertex="1">
          <mxGeometry x="105.25" y="610" width="66" height="20" as="geometry" />
        </mxCell>
        <mxCell id="AZJ5ZLYv0wKqi_fWB7lU-68" value="" style="rounded=0;whiteSpace=wrap;html=1;" parent="AZJ5ZLYv0wKqi_fWB7lU-9" vertex="1">
          <mxGeometry x="250" y="490" width="15" height="15" as="geometry" />
        </mxCell>
        <mxCell id="AZJ5ZLYv0wKqi_fWB7lU-69" value="&lt;font style=&quot;font-size: 8px;&quot;&gt;HR&lt;/font&gt;" style="text;html=1;align=center;verticalAlign=middle;whiteSpace=wrap;rounded=0;" parent="AZJ5ZLYv0wKqi_fWB7lU-9" vertex="1">
          <mxGeometry x="266.25" y="487.5" width="40" height="17.5" as="geometry" />
        </mxCell>
        <mxCell id="AZJ5ZLYv0wKqi_fWB7lU-70" value="" style="rounded=0;whiteSpace=wrap;html=1;" parent="AZJ5ZLYv0wKqi_fWB7lU-9" vertex="1">
          <mxGeometry x="115" y="525" width="110" height="20" as="geometry" />
        </mxCell>
        <mxCell id="AZJ5ZLYv0wKqi_fWB7lU-71" value="City:&amp;nbsp;" style="text;html=1;align=left;verticalAlign=middle;whiteSpace=wrap;rounded=0;" parent="AZJ5ZLYv0wKqi_fWB7lU-9" vertex="1">
          <mxGeometry x="31.25" y="520" width="80" height="30" as="geometry" />
        </mxCell>
        <mxCell id="AZJ5ZLYv0wKqi_fWB7lU-73" value="" style="rounded=0;whiteSpace=wrap;html=1;" parent="AZJ5ZLYv0wKqi_fWB7lU-9" vertex="1">
          <mxGeometry x="202.5" y="525" width="22.5" height="20" as="geometry" />
        </mxCell>
        <mxCell id="AZJ5ZLYv0wKqi_fWB7lU-72" value="" style="triangle;whiteSpace=wrap;html=1;rotation=90;" parent="AZJ5ZLYv0wKqi_fWB7lU-9" vertex="1">
          <mxGeometry x="205.63" y="525" width="16.25" height="20" as="geometry" />
        </mxCell>
        <mxCell id="AZJ5ZLYv0wKqi_fWB7lU-74" value="&lt;font style=&quot;font-size: 8px;&quot;&gt;Hong Kong&lt;/font&gt;" style="text;html=1;align=center;verticalAlign=middle;whiteSpace=wrap;rounded=0;" parent="AZJ5ZLYv0wKqi_fWB7lU-9" vertex="1">
          <mxGeometry x="120" y="526.25" width="50" height="17.5" as="geometry" />
        </mxCell>
        <mxCell id="AZJ5ZLYv0wKqi_fWB7lU-76" value="" style="verticalLabelPosition=bottom;html=1;verticalAlign=top;strokeWidth=1;align=center;outlineConnect=0;dashed=0;outlineConnect=0;shape=mxgraph.aws3d.image;strokeColor=none;fillColor=#777777;aspect=fixed;" parent="AZJ5ZLYv0wKqi_fWB7lU-9" vertex="1">
          <mxGeometry x="30.75" y="111" width="24.13" height="41.5" as="geometry" />
        </mxCell>
        <mxCell id="2hvN6OMtMKhxR6MF6PwG-1" value="" style="rounded=1;whiteSpace=wrap;html=1;fillColor=none;" parent="AZJ5ZLYv0wKqi_fWB7lU-9" vertex="1">
          <mxGeometry x="6.1" y="100" width="563.9" height="100" as="geometry" />
        </mxCell>
        <mxCell id="2hvN6OMtMKhxR6MF6PwG-2" value="" style="rounded=1;whiteSpace=wrap;html=1;fillColor=none;" parent="AZJ5ZLYv0wKqi_fWB7lU-9" vertex="1">
          <mxGeometry x="20" y="106.38" width="540" height="53.62" as="geometry" />
        </mxCell>
        <mxCell id="2hvN6OMtMKhxR6MF6PwG-3" value="" style="rounded=1;whiteSpace=wrap;html=1;fillColor=none;arcSize=13;" parent="AZJ5ZLYv0wKqi_fWB7lU-9" vertex="1">
          <mxGeometry x="20" y="160" width="540" height="40" as="geometry" />
        </mxCell>
        <mxCell id="2hvN6OMtMKhxR6MF6PwG-5" value="" style="rounded=1;whiteSpace=wrap;html=1;fillColor=none;strokeColor=#FF7C30;" parent="AZJ5ZLYv0wKqi_fWB7lU-9" vertex="1">
          <mxGeometry x="7.2799999999999985" y="235.94" width="561.55" height="32.5" as="geometry" />
        </mxCell>
        <mxCell id="2hvN6OMtMKhxR6MF6PwG-7" value="" style="rounded=1;whiteSpace=wrap;html=1;fillColor=none;" parent="AZJ5ZLYv0wKqi_fWB7lU-9" vertex="1">
          <mxGeometry x="6.099999999999994" y="315" width="561.55" height="32.5" as="geometry" />
        </mxCell>
        <mxCell id="2hvN6OMtMKhxR6MF6PwG-8" value="" style="rounded=1;whiteSpace=wrap;html=1;fillColor=none;" parent="AZJ5ZLYv0wKqi_fWB7lU-9" vertex="1">
          <mxGeometry x="6.099999999999994" y="352.5" width="561.55" height="32.5" as="geometry" />
        </mxCell>
        <mxCell id="2hvN6OMtMKhxR6MF6PwG-9" value="" style="rounded=1;whiteSpace=wrap;html=1;fillColor=none;" parent="AZJ5ZLYv0wKqi_fWB7lU-9" vertex="1">
          <mxGeometry x="7.939999999999998" y="392.5" width="561.55" height="32.5" as="geometry" />
        </mxCell>
        <mxCell id="2hvN6OMtMKhxR6MF6PwG-10" value="" style="rounded=1;whiteSpace=wrap;html=1;fillColor=none;" parent="AZJ5ZLYv0wKqi_fWB7lU-9" vertex="1">
          <mxGeometry x="5.079999999999998" y="437.5" width="561.55" height="32.5" as="geometry" />
        </mxCell>
        <mxCell id="2hvN6OMtMKhxR6MF6PwG-11" value="" style="rounded=1;whiteSpace=wrap;html=1;fillColor=none;" parent="AZJ5ZLYv0wKqi_fWB7lU-9" vertex="1">
          <mxGeometry x="5.079999999999984" y="472.5" width="561.55" height="32.5" as="geometry" />
        </mxCell>
        <mxCell id="2hvN6OMtMKhxR6MF6PwG-12" value="" style="rounded=1;whiteSpace=wrap;html=1;fillColor=none;" parent="AZJ5ZLYv0wKqi_fWB7lU-9" vertex="1">
          <mxGeometry x="7.939999999999998" y="517.5" width="561.55" height="32.5" as="geometry" />
        </mxCell>
        <mxCell id="2hvN6OMtMKhxR6MF6PwG-13" value="" style="rounded=1;whiteSpace=wrap;html=1;fillColor=none;" parent="AZJ5ZLYv0wKqi_fWB7lU-9" vertex="1">
          <mxGeometry x="7.280000000000001" y="560" width="561.55" height="32.5" as="geometry" />
        </mxCell>
        <mxCell id="2hvN6OMtMKhxR6MF6PwG-14" value="" style="rounded=1;whiteSpace=wrap;html=1;fillColor=none;" parent="AZJ5ZLYv0wKqi_fWB7lU-9" vertex="1">
          <mxGeometry x="7.280000000000001" y="603.75" width="561.55" height="32.5" as="geometry" />
        </mxCell>
        <mxCell id="2hvN6OMtMKhxR6MF6PwG-15" value="" style="rounded=1;whiteSpace=wrap;html=1;fillColor=none;strokeColor=#FF1414;" parent="AZJ5ZLYv0wKqi_fWB7lU-9" vertex="1">
          <mxGeometry x="5.08" y="234.37" width="104.92" height="35.63" as="geometry" />
        </mxCell>
        <mxCell id="2hvN6OMtMKhxR6MF6PwG-17" value="" style="rounded=1;whiteSpace=wrap;html=1;fillColor=none;" parent="AZJ5ZLYv0wKqi_fWB7lU-9" vertex="1">
          <mxGeometry x="5.039999999999997" y="274.69" width="104.92" height="35.63" as="geometry" />
        </mxCell>
        <mxCell id="2hvN6OMtMKhxR6MF6PwG-18" value="" style="rounded=1;whiteSpace=wrap;html=1;fillColor=none;" parent="AZJ5ZLYv0wKqi_fWB7lU-9" vertex="1">
          <mxGeometry x="109.96" y="274.69" width="120" height="35.63" as="geometry" />
        </mxCell>
        <mxCell id="2hvN6OMtMKhxR6MF6PwG-19" value="" style="rounded=1;whiteSpace=wrap;html=1;fillColor=none;" parent="AZJ5ZLYv0wKqi_fWB7lU-9" vertex="1">
          <mxGeometry x="7.280000000000001" y="313.43" width="104.92" height="35.63" as="geometry" />
        </mxCell>
        <mxCell id="2hvN6OMtMKhxR6MF6PwG-20" value="" style="rounded=1;whiteSpace=wrap;html=1;fillColor=none;" parent="AZJ5ZLYv0wKqi_fWB7lU-9" vertex="1">
          <mxGeometry x="112.2" y="313.43" width="120" height="35.63" as="geometry" />
        </mxCell>
        <mxCell id="z7X5l0mQNj7ZzN6ZvrOf-1" value="" style="rounded=1;whiteSpace=wrap;html=1;fillColor=none;strokeColor=#FF0F0F;" parent="AZJ5ZLYv0wKqi_fWB7lU-9" vertex="1">
          <mxGeometry x="419" y="235.94" width="50" height="35.63" as="geometry" />
        </mxCell>
        <mxCell id="z7X5l0mQNj7ZzN6ZvrOf-3" value="" style="rounded=1;whiteSpace=wrap;html=1;fillColor=none;strokeColor=#FF0F0F;" parent="AZJ5ZLYv0wKqi_fWB7lU-9" vertex="1">
          <mxGeometry x="369" y="235.94" width="50" height="35.63" as="geometry" />
        </mxCell>
        <mxCell id="fHuBCH_pNnJyEU7MtAPp-43" value="" style="strokeWidth=1;shadow=0;dashed=0;align=center;html=1;shape=mxgraph.mockup.containers.browserWindow;rSize=0;strokeColor=#666666;strokeColor2=#008cff;strokeColor3=#c4c4c4;mainText=,;recursiveResize=0;" parent="1" vertex="1">
          <mxGeometry x="1090" y="240" width="550" height="410" as="geometry" />
        </mxCell>
        <mxCell id="fHuBCH_pNnJyEU7MtAPp-44" value="Page 1" style="strokeWidth=1;shadow=0;dashed=0;align=center;html=1;shape=mxgraph.mockup.containers.anchor;fontSize=17;fontColor=#666666;align=left;whiteSpace=wrap;" parent="fHuBCH_pNnJyEU7MtAPp-43" vertex="1">
          <mxGeometry x="60" y="12" width="110" height="26" as="geometry" />
        </mxCell>
        <mxCell id="fHuBCH_pNnJyEU7MtAPp-45" value="https://www.draw.io" style="strokeWidth=1;shadow=0;dashed=0;align=center;html=1;shape=mxgraph.mockup.containers.anchor;rSize=0;fontSize=17;fontColor=#666666;align=left;" parent="fHuBCH_pNnJyEU7MtAPp-43" vertex="1">
          <mxGeometry x="130" y="60" width="250" height="26" as="geometry" />
        </mxCell>
        <mxCell id="z7X5l0mQNj7ZzN6ZvrOf-4" value="" style="rounded=1;whiteSpace=wrap;html=1;fillColor=none;strokeColor=#FF7C30;" parent="fHuBCH_pNnJyEU7MtAPp-43" vertex="1">
          <mxGeometry y="160" width="550" height="32.5" as="geometry" />
        </mxCell>
        <mxCell id="z7X5l0mQNj7ZzN6ZvrOf-7" value="" style="rounded=1;whiteSpace=wrap;html=1;fillColor=none;strokeColor=#FF7C30;" parent="fHuBCH_pNnJyEU7MtAPp-43" vertex="1">
          <mxGeometry y="225" width="550" height="32.5" as="geometry" />
        </mxCell>
        <mxCell id="z7X5l0mQNj7ZzN6ZvrOf-8" value="" style="rounded=1;whiteSpace=wrap;html=1;fillColor=none;strokeColor=#FF0F0F;" parent="fHuBCH_pNnJyEU7MtAPp-43" vertex="1">
          <mxGeometry y="160" width="270" height="32.5" as="geometry" />
        </mxCell>
        <mxCell id="z7X5l0mQNj7ZzN6ZvrOf-9" value="" style="rounded=1;whiteSpace=wrap;html=1;fillColor=none;strokeColor=#FF0F0F;" parent="fHuBCH_pNnJyEU7MtAPp-43" vertex="1">
          <mxGeometry x="270" y="160" width="280" height="32.5" as="geometry" />
        </mxCell>
        <mxCell id="2hvN6OMtMKhxR6MF6PwG-24" style="edgeStyle=orthogonalEdgeStyle;rounded=0;orthogonalLoop=1;jettySize=auto;html=1;" parent="1" source="2hvN6OMtMKhxR6MF6PwG-21" target="2hvN6OMtMKhxR6MF6PwG-5" edge="1">
          <mxGeometry relative="1" as="geometry" />
        </mxCell>
        <mxCell id="2hvN6OMtMKhxR6MF6PwG-21" value="Row" style="text;html=1;align=center;verticalAlign=middle;whiteSpace=wrap;rounded=0;fillColor=#d0cee2;strokeColor=#56517e;" parent="1" vertex="1">
          <mxGeometry x="520" y="400" width="60" height="30" as="geometry" />
        </mxCell>
        <mxCell id="2hvN6OMtMKhxR6MF6PwG-25" style="edgeStyle=orthogonalEdgeStyle;rounded=0;orthogonalLoop=1;jettySize=auto;html=1;entryX=0.75;entryY=0;entryDx=0;entryDy=0;" parent="1" source="2hvN6OMtMKhxR6MF6PwG-22" edge="1">
          <mxGeometry relative="1" as="geometry">
            <Array as="points">
              <mxPoint x="-90" y="445" />
              <mxPoint x="-90" y="410" />
              <mxPoint x="120" y="410" />
            </Array>
            <mxPoint x="477.5" y="414.37" as="targetPoint" />
          </mxGeometry>
        </mxCell>
        <mxCell id="2hvN6OMtMKhxR6MF6PwG-22" value="column" style="text;html=1;align=center;verticalAlign=middle;whiteSpace=wrap;rounded=0;fillColor=#fad9d5;strokeColor=#ae4132;" parent="1" vertex="1">
          <mxGeometry x="-160" y="430" width="60" height="30" as="geometry" />
        </mxCell>
        <mxCell id="2hvN6OMtMKhxR6MF6PwG-23" value="" style="endArrow=classic;html=1;rounded=0;entryX=-0.002;entryY=0.888;entryDx=0;entryDy=0;entryPerimeter=0;" parent="1" target="2hvN6OMtMKhxR6MF6PwG-15" edge="1">
          <mxGeometry width="50" height="50" relative="1" as="geometry">
            <mxPoint x="-100" y="450" as="sourcePoint" />
            <mxPoint x="-50" y="400" as="targetPoint" />
          </mxGeometry>
        </mxCell>
      </root>
    </mxGraphModel>
  </diagram>
  <diagram id="WfNDqplz80GjRG0yiWi5" name="js concept to connect the event and variable">
    <mxGraphModel dx="1674" dy="866" grid="1" gridSize="10" guides="1" tooltips="1" connect="1" arrows="1" fold="1" page="1" pageScale="1" pageWidth="827" pageHeight="1169" math="0" shadow="0">
      <root>
        <mxCell id="0" />
        <mxCell id="1" parent="0" />
        <mxCell id="NArRcIvmyigxRHXOEkqU-1" value="button click event" style="rounded=0;whiteSpace=wrap;html=1;" parent="1" vertex="1">
          <mxGeometry x="150" y="110" width="120" height="60" as="geometry" />
        </mxCell>
        <mxCell id="NArRcIvmyigxRHXOEkqU-2" value="inputbox input event" style="rounded=0;whiteSpace=wrap;html=1;" parent="1" vertex="1">
          <mxGeometry x="150" y="210" width="120" height="60" as="geometry" />
        </mxCell>
        <mxCell id="NArRcIvmyigxRHXOEkqU-4" style="edgeStyle=orthogonalEdgeStyle;rounded=0;orthogonalLoop=1;jettySize=auto;html=1;" parent="1" source="NArRcIvmyigxRHXOEkqU-3" target="NArRcIvmyigxRHXOEkqU-1" edge="1">
          <mxGeometry relative="1" as="geometry" />
        </mxCell>
        <mxCell id="NArRcIvmyigxRHXOEkqU-5" style="edgeStyle=orthogonalEdgeStyle;rounded=0;orthogonalLoop=1;jettySize=auto;html=1;entryX=1;entryY=0.5;entryDx=0;entryDy=0;" parent="1" source="NArRcIvmyigxRHXOEkqU-3" target="NArRcIvmyigxRHXOEkqU-2" edge="1">
          <mxGeometry relative="1" as="geometry" />
        </mxCell>
        <mxCell id="NArRcIvmyigxRHXOEkqU-3" value="&lt;font color=&quot;#3399ff&quot;&gt;var &lt;/font&gt;inputtedText" style="text;html=1;align=center;verticalAlign=middle;whiteSpace=wrap;rounded=0;" parent="1" vertex="1">
          <mxGeometry x="354" y="160" width="116" height="30" as="geometry" />
        </mxCell>
      </root>
    </mxGraphModel>
  </diagram>
  <diagram id="30WRdEDpd7Y6pUk9U_LJ" name="classwork for loop the items">
    <mxGraphModel dx="1674" dy="866" grid="1" gridSize="10" guides="1" tooltips="1" connect="1" arrows="1" fold="1" page="1" pageScale="1" pageWidth="827" pageHeight="1169" math="0" shadow="0">
      <root>
        <mxCell id="0" />
        <mxCell id="1" parent="0" />
        <mxCell id="Otwzj89sJiIAP1gfatpG-1" value="" style="strokeWidth=1;shadow=0;dashed=0;align=center;html=1;shape=mxgraph.mockup.containers.browserWindow;rSize=0;strokeColor=#666666;strokeColor2=#008cff;strokeColor3=#c4c4c4;mainText=,;recursiveResize=0;" parent="1" vertex="1">
          <mxGeometry x="50" width="710" height="1120" as="geometry" />
        </mxCell>
        <mxCell id="Otwzj89sJiIAP1gfatpG-2" value="Page 1" style="strokeWidth=1;shadow=0;dashed=0;align=center;html=1;shape=mxgraph.mockup.containers.anchor;fontSize=17;fontColor=#666666;align=left;whiteSpace=wrap;" parent="Otwzj89sJiIAP1gfatpG-1" vertex="1">
          <mxGeometry x="60" y="12" width="110" height="26" as="geometry" />
        </mxCell>
        <mxCell id="Otwzj89sJiIAP1gfatpG-3" value="https://www.draw.io" style="strokeWidth=1;shadow=0;dashed=0;align=center;html=1;shape=mxgraph.mockup.containers.anchor;rSize=0;fontSize=17;fontColor=#666666;align=left;" parent="Otwzj89sJiIAP1gfatpG-1" vertex="1">
          <mxGeometry x="130" y="56" width="250" height="34" as="geometry" />
        </mxCell>
        <mxCell id="Otwzj89sJiIAP1gfatpG-20" value="" style="group" parent="Otwzj89sJiIAP1gfatpG-1" vertex="1" connectable="0">
          <mxGeometry x="250" y="130" width="230" height="310" as="geometry" />
        </mxCell>
        <mxCell id="Otwzj89sJiIAP1gfatpG-4" value="" style="rounded=0;whiteSpace=wrap;html=1;" parent="Otwzj89sJiIAP1gfatpG-20" vertex="1">
          <mxGeometry x="10" y="-10" width="220" height="320" as="geometry" />
        </mxCell>
        <mxCell id="Otwzj89sJiIAP1gfatpG-5" value="Title" style="text;html=1;align=center;verticalAlign=middle;whiteSpace=wrap;rounded=0;" parent="Otwzj89sJiIAP1gfatpG-20" vertex="1">
          <mxGeometry y="95" width="60" height="30" as="geometry" />
        </mxCell>
        <mxCell id="Otwzj89sJiIAP1gfatpG-11" value="&lt;font style=&quot;font-size: 10px;&quot;&gt;price&lt;/font&gt;" style="text;html=1;align=center;verticalAlign=middle;whiteSpace=wrap;rounded=0;" parent="Otwzj89sJiIAP1gfatpG-20" vertex="1">
          <mxGeometry y="120" width="60" height="30" as="geometry" />
        </mxCell>
        <mxCell id="Otwzj89sJiIAP1gfatpG-13" value="rating" style="text;whiteSpace=wrap;" parent="Otwzj89sJiIAP1gfatpG-20" vertex="1">
          <mxGeometry x="12.73" y="200" width="90" height="40" as="geometry" />
        </mxCell>
        <mxCell id="Otwzj89sJiIAP1gfatpG-16" value="" style="image;aspect=fixed;html=1;points=[];align=center;fontSize=12;image=img/lib/azure2/general/Image.svg;" parent="Otwzj89sJiIAP1gfatpG-20" vertex="1">
          <mxGeometry x="47.27000000000001" width="145.46" height="100" as="geometry" />
        </mxCell>
        <mxCell id="Otwzj89sJiIAP1gfatpG-17" value="category" style="text;whiteSpace=wrap;" parent="Otwzj89sJiIAP1gfatpG-20" vertex="1">
          <mxGeometry x="12.73" y="170" width="80" height="40" as="geometry" />
        </mxCell>
        <mxCell id="Otwzj89sJiIAP1gfatpG-18" value="&lt;h1 style=&quot;margin-top: 0px; font-size: 10px;&quot;&gt;&lt;font style=&quot;font-size: 10px;&quot;&gt;description&lt;/font&gt;&lt;/h1&gt;" style="text;html=1;whiteSpace=wrap;overflow=hidden;rounded=0;" parent="Otwzj89sJiIAP1gfatpG-20" vertex="1">
          <mxGeometry x="12.73" y="150" width="77.27" height="20" as="geometry" />
        </mxCell>
        <mxCell id="Otwzj89sJiIAP1gfatpG-29" value="" style="group" parent="Otwzj89sJiIAP1gfatpG-1" vertex="1" connectable="0">
          <mxGeometry x="250" y="810" width="230" height="310" as="geometry" />
        </mxCell>
        <mxCell id="Otwzj89sJiIAP1gfatpG-30" value="" style="rounded=0;whiteSpace=wrap;html=1;" parent="Otwzj89sJiIAP1gfatpG-29" vertex="1">
          <mxGeometry x="10" width="220" height="310" as="geometry" />
        </mxCell>
        <mxCell id="Otwzj89sJiIAP1gfatpG-31" value="Title" style="text;html=1;align=center;verticalAlign=middle;whiteSpace=wrap;rounded=0;" parent="Otwzj89sJiIAP1gfatpG-29" vertex="1">
          <mxGeometry y="95" width="60" height="30" as="geometry" />
        </mxCell>
        <mxCell id="Otwzj89sJiIAP1gfatpG-32" value="&lt;font style=&quot;font-size: 10px;&quot;&gt;price&lt;/font&gt;" style="text;html=1;align=center;verticalAlign=middle;whiteSpace=wrap;rounded=0;" parent="Otwzj89sJiIAP1gfatpG-29" vertex="1">
          <mxGeometry y="120" width="60" height="30" as="geometry" />
        </mxCell>
        <mxCell id="Otwzj89sJiIAP1gfatpG-33" value="rating" style="text;whiteSpace=wrap;" parent="Otwzj89sJiIAP1gfatpG-29" vertex="1">
          <mxGeometry x="20" y="250" width="90" height="40" as="geometry" />
        </mxCell>
        <mxCell id="Otwzj89sJiIAP1gfatpG-34" value="" style="image;aspect=fixed;html=1;points=[];align=center;fontSize=12;image=img/lib/azure2/general/Image.svg;" parent="Otwzj89sJiIAP1gfatpG-29" vertex="1">
          <mxGeometry x="47.27000000000001" width="145.46" height="100" as="geometry" />
        </mxCell>
        <mxCell id="Otwzj89sJiIAP1gfatpG-35" value="category" style="text;whiteSpace=wrap;" parent="Otwzj89sJiIAP1gfatpG-29" vertex="1">
          <mxGeometry x="20" y="220" width="80" height="40" as="geometry" />
        </mxCell>
        <mxCell id="Otwzj89sJiIAP1gfatpG-36" value="&lt;h1 style=&quot;margin-top: 0px; font-size: 10px;&quot;&gt;&lt;font style=&quot;font-size: 10px;&quot;&gt;description&lt;/font&gt;&lt;/h1&gt;&lt;p style=&quot;font-size: 10px;&quot;&gt;&lt;font style=&quot;font-size: 10px;&quot;&gt;Lorem ipsum dolor sit amet, consectetur adipisicing elit, sed do eiusmod tempor incididunt ut labore et dolore magna aliqua.&lt;/font&gt;&lt;/p&gt;" style="text;html=1;whiteSpace=wrap;overflow=hidden;rounded=0;" parent="Otwzj89sJiIAP1gfatpG-29" vertex="1">
          <mxGeometry x="20" y="140" width="180" height="80" as="geometry" />
        </mxCell>
        <mxCell id="Otwzj89sJiIAP1gfatpG-21" value="" style="group" parent="Otwzj89sJiIAP1gfatpG-1" vertex="1" connectable="0">
          <mxGeometry x="250" y="460" width="230" height="310" as="geometry" />
        </mxCell>
        <mxCell id="Otwzj89sJiIAP1gfatpG-22" value="" style="rounded=0;whiteSpace=wrap;html=1;" parent="Otwzj89sJiIAP1gfatpG-21" vertex="1">
          <mxGeometry x="10" width="220" height="310" as="geometry" />
        </mxCell>
        <mxCell id="Otwzj89sJiIAP1gfatpG-23" value="Title" style="text;html=1;align=center;verticalAlign=middle;whiteSpace=wrap;rounded=0;" parent="Otwzj89sJiIAP1gfatpG-21" vertex="1">
          <mxGeometry y="95" width="60" height="30" as="geometry" />
        </mxCell>
        <mxCell id="Otwzj89sJiIAP1gfatpG-24" value="&lt;font style=&quot;font-size: 10px;&quot;&gt;price&lt;/font&gt;" style="text;html=1;align=center;verticalAlign=middle;whiteSpace=wrap;rounded=0;" parent="Otwzj89sJiIAP1gfatpG-21" vertex="1">
          <mxGeometry y="120" width="60" height="30" as="geometry" />
        </mxCell>
        <mxCell id="Otwzj89sJiIAP1gfatpG-25" value="rating" style="text;whiteSpace=wrap;" parent="Otwzj89sJiIAP1gfatpG-21" vertex="1">
          <mxGeometry x="20" y="250" width="90" height="40" as="geometry" />
        </mxCell>
        <mxCell id="Otwzj89sJiIAP1gfatpG-26" value="" style="image;aspect=fixed;html=1;points=[];align=center;fontSize=12;image=img/lib/azure2/general/Image.svg;" parent="Otwzj89sJiIAP1gfatpG-21" vertex="1">
          <mxGeometry x="47.27000000000001" width="145.46" height="100" as="geometry" />
        </mxCell>
        <mxCell id="Otwzj89sJiIAP1gfatpG-27" value="category" style="text;whiteSpace=wrap;" parent="Otwzj89sJiIAP1gfatpG-21" vertex="1">
          <mxGeometry x="20" y="220" width="80" height="40" as="geometry" />
        </mxCell>
        <mxCell id="Otwzj89sJiIAP1gfatpG-28" value="&lt;h1 style=&quot;margin-top: 0px; font-size: 10px;&quot;&gt;&lt;font style=&quot;font-size: 10px;&quot;&gt;description&lt;/font&gt;&lt;/h1&gt;&lt;p style=&quot;font-size: 10px;&quot;&gt;&lt;font style=&quot;font-size: 10px;&quot;&gt;Lorem ipsum dolor sit amet, consectetur adipisicing elit, sed do eiusmod tempor incididunt ut labore et dolore magna aliqua.&lt;/font&gt;&lt;/p&gt;" style="text;html=1;whiteSpace=wrap;overflow=hidden;rounded=0;" parent="Otwzj89sJiIAP1gfatpG-21" vertex="1">
          <mxGeometry x="20" y="140" width="180" height="80" as="geometry" />
        </mxCell>
        <mxCell id="Otwzj89sJiIAP1gfatpG-37" value="" style="strokeWidth=1;shadow=0;dashed=0;align=center;html=1;shape=mxgraph.mockup.containers.browserWindow;rSize=0;strokeColor=#666666;strokeColor2=#008cff;strokeColor3=#c4c4c4;mainText=,;recursiveResize=0;" parent="1" vertex="1">
          <mxGeometry x="70" y="10" width="710" height="1120" as="geometry" />
        </mxCell>
        <mxCell id="Otwzj89sJiIAP1gfatpG-38" value="Page 1" style="strokeWidth=1;shadow=0;dashed=0;align=center;html=1;shape=mxgraph.mockup.containers.anchor;fontSize=17;fontColor=#666666;align=left;whiteSpace=wrap;" parent="Otwzj89sJiIAP1gfatpG-37" vertex="1">
          <mxGeometry x="60" y="12" width="110" height="26" as="geometry" />
        </mxCell>
        <mxCell id="Otwzj89sJiIAP1gfatpG-39" value="https://www.draw.io" style="strokeWidth=1;shadow=0;dashed=0;align=center;html=1;shape=mxgraph.mockup.containers.anchor;rSize=0;fontSize=17;fontColor=#666666;align=left;" parent="Otwzj89sJiIAP1gfatpG-37" vertex="1">
          <mxGeometry x="130" y="56" width="250" height="34" as="geometry" />
        </mxCell>
        <mxCell id="Otwzj89sJiIAP1gfatpG-40" value="" style="group" parent="Otwzj89sJiIAP1gfatpG-37" vertex="1" connectable="0">
          <mxGeometry x="260" y="130" width="230" height="310" as="geometry" />
        </mxCell>
        <mxCell id="Otwzj89sJiIAP1gfatpG-41" value="" style="rounded=0;whiteSpace=wrap;html=1;" parent="Otwzj89sJiIAP1gfatpG-40" vertex="1">
          <mxGeometry x="10" y="-10" width="220" height="320" as="geometry" />
        </mxCell>
        <mxCell id="Otwzj89sJiIAP1gfatpG-42" value="Title" style="text;html=1;align=center;verticalAlign=middle;whiteSpace=wrap;rounded=0;" parent="Otwzj89sJiIAP1gfatpG-40" vertex="1">
          <mxGeometry y="95" width="60" height="30" as="geometry" />
        </mxCell>
        <mxCell id="Otwzj89sJiIAP1gfatpG-43" value="&lt;font style=&quot;font-size: 10px;&quot;&gt;price&lt;/font&gt;" style="text;html=1;align=center;verticalAlign=middle;whiteSpace=wrap;rounded=0;" parent="Otwzj89sJiIAP1gfatpG-40" vertex="1">
          <mxGeometry y="120" width="60" height="30" as="geometry" />
        </mxCell>
        <mxCell id="Otwzj89sJiIAP1gfatpG-44" value="rating&#xa;rate&#xa;count" style="text;whiteSpace=wrap;" parent="Otwzj89sJiIAP1gfatpG-40" vertex="1">
          <mxGeometry x="15.46" y="200" width="90" height="40" as="geometry" />
        </mxCell>
        <mxCell id="Otwzj89sJiIAP1gfatpG-45" value="" style="image;aspect=fixed;html=1;points=[];align=center;fontSize=12;image=img/lib/azure2/general/Image.svg;" parent="Otwzj89sJiIAP1gfatpG-40" vertex="1">
          <mxGeometry x="47.27000000000001" width="145.46" height="100" as="geometry" />
        </mxCell>
        <mxCell id="Otwzj89sJiIAP1gfatpG-46" value="category" style="text;whiteSpace=wrap;" parent="Otwzj89sJiIAP1gfatpG-40" vertex="1">
          <mxGeometry x="15.46" y="170" width="80" height="40" as="geometry" />
        </mxCell>
        <mxCell id="Otwzj89sJiIAP1gfatpG-47" value="&lt;h1 style=&quot;margin-top: 0px; font-size: 10px;&quot;&gt;&lt;font style=&quot;font-size: 10px;&quot;&gt;description&lt;/font&gt;&lt;/h1&gt;" style="text;html=1;whiteSpace=wrap;overflow=hidden;rounded=0;" parent="Otwzj89sJiIAP1gfatpG-40" vertex="1">
          <mxGeometry x="15.46" y="150" width="77.27" height="20" as="geometry" />
        </mxCell>
        <mxCell id="Otwzj89sJiIAP1gfatpG-48" value="" style="group" parent="Otwzj89sJiIAP1gfatpG-37" vertex="1" connectable="0">
          <mxGeometry x="250" y="810" width="230" height="310" as="geometry" />
        </mxCell>
        <mxCell id="Otwzj89sJiIAP1gfatpG-49" value="" style="rounded=0;whiteSpace=wrap;html=1;" parent="Otwzj89sJiIAP1gfatpG-48" vertex="1">
          <mxGeometry x="10" width="220" height="310" as="geometry" />
        </mxCell>
        <mxCell id="Otwzj89sJiIAP1gfatpG-50" value="Title" style="text;html=1;align=center;verticalAlign=middle;whiteSpace=wrap;rounded=0;" parent="Otwzj89sJiIAP1gfatpG-48" vertex="1">
          <mxGeometry y="95" width="60" height="30" as="geometry" />
        </mxCell>
        <mxCell id="Otwzj89sJiIAP1gfatpG-51" value="&lt;font style=&quot;font-size: 10px;&quot;&gt;price&lt;/font&gt;" style="text;html=1;align=center;verticalAlign=middle;whiteSpace=wrap;rounded=0;" parent="Otwzj89sJiIAP1gfatpG-48" vertex="1">
          <mxGeometry y="120" width="60" height="30" as="geometry" />
        </mxCell>
        <mxCell id="Otwzj89sJiIAP1gfatpG-52" value="rating" style="text;whiteSpace=wrap;" parent="Otwzj89sJiIAP1gfatpG-48" vertex="1">
          <mxGeometry x="20" y="250" width="90" height="40" as="geometry" />
        </mxCell>
        <mxCell id="Otwzj89sJiIAP1gfatpG-53" value="" style="image;aspect=fixed;html=1;points=[];align=center;fontSize=12;image=img/lib/azure2/general/Image.svg;" parent="Otwzj89sJiIAP1gfatpG-48" vertex="1">
          <mxGeometry x="47.27000000000001" width="145.46" height="100" as="geometry" />
        </mxCell>
        <mxCell id="Otwzj89sJiIAP1gfatpG-54" value="category" style="text;whiteSpace=wrap;" parent="Otwzj89sJiIAP1gfatpG-48" vertex="1">
          <mxGeometry x="20" y="220" width="80" height="40" as="geometry" />
        </mxCell>
        <mxCell id="Otwzj89sJiIAP1gfatpG-55" value="&lt;h1 style=&quot;margin-top: 0px; font-size: 10px;&quot;&gt;&lt;font style=&quot;font-size: 10px;&quot;&gt;description&lt;/font&gt;&lt;/h1&gt;&lt;p style=&quot;font-size: 10px;&quot;&gt;&lt;font style=&quot;font-size: 10px;&quot;&gt;Lorem ipsum dolor sit amet, consectetur adipisicing elit, sed do eiusmod tempor incididunt ut labore et dolore magna aliqua.&lt;/font&gt;&lt;/p&gt;" style="text;html=1;whiteSpace=wrap;overflow=hidden;rounded=0;" parent="Otwzj89sJiIAP1gfatpG-48" vertex="1">
          <mxGeometry x="20" y="140" width="180" height="80" as="geometry" />
        </mxCell>
        <mxCell id="Otwzj89sJiIAP1gfatpG-56" value="" style="group" parent="Otwzj89sJiIAP1gfatpG-37" vertex="1" connectable="0">
          <mxGeometry x="250" y="460" width="230" height="310" as="geometry" />
        </mxCell>
        <mxCell id="Otwzj89sJiIAP1gfatpG-57" value="" style="rounded=0;whiteSpace=wrap;html=1;" parent="Otwzj89sJiIAP1gfatpG-56" vertex="1">
          <mxGeometry x="10" width="220" height="310" as="geometry" />
        </mxCell>
        <mxCell id="Otwzj89sJiIAP1gfatpG-58" value="Title" style="text;html=1;align=center;verticalAlign=middle;whiteSpace=wrap;rounded=0;" parent="Otwzj89sJiIAP1gfatpG-56" vertex="1">
          <mxGeometry y="95" width="60" height="30" as="geometry" />
        </mxCell>
        <mxCell id="Otwzj89sJiIAP1gfatpG-59" value="&lt;font style=&quot;font-size: 10px;&quot;&gt;price&lt;/font&gt;" style="text;html=1;align=center;verticalAlign=middle;whiteSpace=wrap;rounded=0;" parent="Otwzj89sJiIAP1gfatpG-56" vertex="1">
          <mxGeometry y="120" width="60" height="30" as="geometry" />
        </mxCell>
        <mxCell id="Otwzj89sJiIAP1gfatpG-60" value="rating" style="text;whiteSpace=wrap;" parent="Otwzj89sJiIAP1gfatpG-56" vertex="1">
          <mxGeometry x="20" y="250" width="90" height="40" as="geometry" />
        </mxCell>
        <mxCell id="Otwzj89sJiIAP1gfatpG-61" value="" style="image;aspect=fixed;html=1;points=[];align=center;fontSize=12;image=img/lib/azure2/general/Image.svg;" parent="Otwzj89sJiIAP1gfatpG-56" vertex="1">
          <mxGeometry x="47.27000000000001" width="145.46" height="100" as="geometry" />
        </mxCell>
        <mxCell id="Otwzj89sJiIAP1gfatpG-62" value="category" style="text;whiteSpace=wrap;" parent="Otwzj89sJiIAP1gfatpG-56" vertex="1">
          <mxGeometry x="20" y="220" width="80" height="40" as="geometry" />
        </mxCell>
        <mxCell id="Otwzj89sJiIAP1gfatpG-63" value="&lt;h1 style=&quot;margin-top: 0px; font-size: 10px;&quot;&gt;&lt;font style=&quot;font-size: 10px;&quot;&gt;description&lt;/font&gt;&lt;/h1&gt;&lt;p style=&quot;font-size: 10px;&quot;&gt;&lt;font style=&quot;font-size: 10px;&quot;&gt;Lorem ipsum dolor sit amet, consectetur adipisicing elit, sed do eiusmod tempor incididunt ut labore et dolore magna aliqua.&lt;/font&gt;&lt;/p&gt;" style="text;html=1;whiteSpace=wrap;overflow=hidden;rounded=0;" parent="Otwzj89sJiIAP1gfatpG-56" vertex="1">
          <mxGeometry x="20" y="140" width="180" height="80" as="geometry" />
        </mxCell>
      </root>
    </mxGraphModel>
  </diagram>
  <diagram id="-ET9qDjAW_Nag9is7i7X" name="append child by using js">
    <mxGraphModel dx="2501" dy="866" grid="1" gridSize="10" guides="1" tooltips="1" connect="1" arrows="1" fold="1" page="1" pageScale="1" pageWidth="827" pageHeight="1169" math="0" shadow="0">
      <root>
        <mxCell id="0" />
        <mxCell id="1" parent="0" />
        <mxCell id="S3xp81EL85QyxGL6N_s5-5" style="edgeStyle=orthogonalEdgeStyle;rounded=0;orthogonalLoop=1;jettySize=auto;html=1;" parent="1" source="S3xp81EL85QyxGL6N_s5-2" target="S3xp81EL85QyxGL6N_s5-4" edge="1">
          <mxGeometry relative="1" as="geometry" />
        </mxCell>
        <mxCell id="S3xp81EL85QyxGL6N_s5-2" value="rate" style="rounded=0;whiteSpace=wrap;html=1;" parent="1" vertex="1">
          <mxGeometry x="500" y="200" width="120" height="60" as="geometry" />
        </mxCell>
        <mxCell id="S3xp81EL85QyxGL6N_s5-6" style="edgeStyle=orthogonalEdgeStyle;rounded=0;orthogonalLoop=1;jettySize=auto;html=1;" parent="1" source="S3xp81EL85QyxGL6N_s5-3" target="S3xp81EL85QyxGL6N_s5-4" edge="1">
          <mxGeometry relative="1" as="geometry" />
        </mxCell>
        <mxCell id="S3xp81EL85QyxGL6N_s5-3" value="count" style="rounded=0;whiteSpace=wrap;html=1;" parent="1" vertex="1">
          <mxGeometry x="500" y="300" width="120" height="60" as="geometry" />
        </mxCell>
        <mxCell id="S3xp81EL85QyxGL6N_s5-14" style="edgeStyle=orthogonalEdgeStyle;rounded=0;orthogonalLoop=1;jettySize=auto;html=1;" parent="1" source="S3xp81EL85QyxGL6N_s5-4" target="S3xp81EL85QyxGL6N_s5-12" edge="1">
          <mxGeometry relative="1" as="geometry" />
        </mxCell>
        <mxCell id="S3xp81EL85QyxGL6N_s5-4" value="div" style="rounded=0;whiteSpace=wrap;html=1;" parent="1" vertex="1">
          <mxGeometry x="220" y="200" width="160" height="160" as="geometry" />
        </mxCell>
        <mxCell id="S3xp81EL85QyxGL6N_s5-7" value="1. appendChild" style="text;html=1;align=center;verticalAlign=middle;whiteSpace=wrap;rounded=0;" parent="1" vertex="1">
          <mxGeometry x="400" y="190" width="100" height="30" as="geometry" />
        </mxCell>
        <mxCell id="S3xp81EL85QyxGL6N_s5-8" value="2. appendChild" style="text;html=1;align=center;verticalAlign=middle;whiteSpace=wrap;rounded=0;" parent="1" vertex="1">
          <mxGeometry x="400" y="330" width="90" height="30" as="geometry" />
        </mxCell>
        <mxCell id="S3xp81EL85QyxGL6N_s5-9" value="3. append child to div" style="text;html=1;align=center;verticalAlign=middle;whiteSpace=wrap;rounded=0;" parent="1" vertex="1">
          <mxGeometry x="380" y="140" width="120" height="30" as="geometry" />
        </mxCell>
        <mxCell id="S3xp81EL85QyxGL6N_s5-13" style="edgeStyle=orthogonalEdgeStyle;rounded=0;orthogonalLoop=1;jettySize=auto;html=1;entryX=1;entryY=0.5;entryDx=0;entryDy=0;" parent="1" source="S3xp81EL85QyxGL6N_s5-11" target="S3xp81EL85QyxGL6N_s5-12" edge="1">
          <mxGeometry relative="1" as="geometry" />
        </mxCell>
        <mxCell id="S3xp81EL85QyxGL6N_s5-11" value="rating" style="rounded=0;whiteSpace=wrap;html=1;" parent="1" vertex="1">
          <mxGeometry x="220" y="30" width="120" height="60" as="geometry" />
        </mxCell>
        <mxCell id="S3xp81EL85QyxGL6N_s5-12" value=".item-rating" style="rounded=0;whiteSpace=wrap;html=1;" parent="1" vertex="1">
          <mxGeometry x="-120" y="140" width="120" height="60" as="geometry" />
        </mxCell>
        <mxCell id="S3xp81EL85QyxGL6N_s5-15" value="4. append child to .item-rating" style="text;html=1;align=center;verticalAlign=middle;whiteSpace=wrap;rounded=0;" parent="1" vertex="1">
          <mxGeometry y="20" width="180" height="30" as="geometry" />
        </mxCell>
        <mxCell id="S3xp81EL85QyxGL6N_s5-16" value="5. append child to .item-rating" style="text;html=1;align=center;verticalAlign=middle;whiteSpace=wrap;rounded=0;" parent="1" vertex="1">
          <mxGeometry x="10" y="290" width="180" height="30" as="geometry" />
        </mxCell>
        <mxCell id="S3xp81EL85QyxGL6N_s5-17" value="1. create 3 elements class name .item-rate, .item-count and div&lt;div&gt;2. use the appendchild function to &quot;connect&quot; rate and count under div&lt;/div&gt;&lt;div&gt;&lt;br&gt;&lt;/div&gt;" style="text;html=1;align=center;verticalAlign=middle;whiteSpace=wrap;rounded=0;" parent="1" vertex="1">
          <mxGeometry x="730" y="80" width="440" height="290" as="geometry" />
        </mxCell>
      </root>
    </mxGraphModel>
  </diagram>
  <diagram id="VqFTARBvCO1MzGUCxtZd" name="git and github">
    <mxGraphModel dx="957" dy="495" grid="1" gridSize="10" guides="1" tooltips="1" connect="1" arrows="1" fold="1" page="1" pageScale="1" pageWidth="827" pageHeight="1169" math="0" shadow="0">
      <root>
        <mxCell id="0" />
        <mxCell id="1" parent="0" />
        <mxCell id="WzSrKTs_QZPkGz3z1cfz-6" style="edgeStyle=orthogonalEdgeStyle;rounded=0;orthogonalLoop=1;jettySize=auto;html=1;entryX=1;entryY=0.5;entryDx=0;entryDy=0;" edge="1" parent="1" source="WzSrKTs_QZPkGz3z1cfz-2" target="WzSrKTs_QZPkGz3z1cfz-3">
          <mxGeometry relative="1" as="geometry" />
        </mxCell>
        <mxCell id="WzSrKTs_QZPkGz3z1cfz-7" style="edgeStyle=orthogonalEdgeStyle;rounded=0;orthogonalLoop=1;jettySize=auto;html=1;" edge="1" parent="1" source="WzSrKTs_QZPkGz3z1cfz-2" target="WzSrKTs_QZPkGz3z1cfz-4">
          <mxGeometry relative="1" as="geometry" />
        </mxCell>
        <mxCell id="WzSrKTs_QZPkGz3z1cfz-8" style="edgeStyle=orthogonalEdgeStyle;rounded=0;orthogonalLoop=1;jettySize=auto;html=1;entryX=1;entryY=0.5;entryDx=0;entryDy=0;" edge="1" parent="1" source="WzSrKTs_QZPkGz3z1cfz-2" target="WzSrKTs_QZPkGz3z1cfz-5">
          <mxGeometry relative="1" as="geometry" />
        </mxCell>
        <mxCell id="WzSrKTs_QZPkGz3z1cfz-2" value="Git (software tools)" style="rounded=0;whiteSpace=wrap;html=1;" vertex="1" parent="1">
          <mxGeometry x="490" y="280" width="120" height="60" as="geometry" />
        </mxCell>
        <mxCell id="WzSrKTs_QZPkGz3z1cfz-3" value="GitHub" style="rounded=0;whiteSpace=wrap;html=1;" vertex="1" parent="1">
          <mxGeometry x="170" y="180" width="120" height="60" as="geometry" />
        </mxCell>
        <mxCell id="WzSrKTs_QZPkGz3z1cfz-4" value="GitLab" style="rounded=0;whiteSpace=wrap;html=1;" vertex="1" parent="1">
          <mxGeometry x="170" y="280" width="120" height="60" as="geometry" />
        </mxCell>
        <mxCell id="WzSrKTs_QZPkGz3z1cfz-5" value="Bitbucket" style="rounded=0;whiteSpace=wrap;html=1;" vertex="1" parent="1">
          <mxGeometry x="170" y="390" width="120" height="60" as="geometry" />
        </mxCell>
        <mxCell id="WzSrKTs_QZPkGz3z1cfz-9" value="Platform" style="text;html=1;align=center;verticalAlign=middle;whiteSpace=wrap;rounded=0;" vertex="1" parent="1">
          <mxGeometry x="400" y="280" width="60" height="30" as="geometry" />
        </mxCell>
      </root>
    </mxGraphModel>
  </diagram>
  <diagram id="pXewiYlif156E0HV8gLb" name="git">
    <mxGraphModel dx="1195" dy="722" grid="1" gridSize="10" guides="1" tooltips="1" connect="1" arrows="1" fold="1" page="1" pageScale="1" pageWidth="827" pageHeight="1169" math="0" shadow="0">
      <root>
        <mxCell id="0" />
        <mxCell id="1" parent="0" />
        <mxCell id="s3NHzKdMCre7f-GKbObA-15" value="" style="rounded=0;whiteSpace=wrap;html=1;" vertex="1" parent="1">
          <mxGeometry x="1010" y="1085" width="350" height="145" as="geometry" />
        </mxCell>
        <mxCell id="HhmTPI4ILTJ7aRJO_7El-25" value="" style="rounded=0;whiteSpace=wrap;html=1;" vertex="1" parent="1">
          <mxGeometry x="520" y="260" width="960" height="440" as="geometry" />
        </mxCell>
        <mxCell id="HhmTPI4ILTJ7aRJO_7El-14" style="edgeStyle=orthogonalEdgeStyle;rounded=0;orthogonalLoop=1;jettySize=auto;html=1;entryX=0;entryY=0.5;entryDx=0;entryDy=0;" edge="1" parent="1" source="HhmTPI4ILTJ7aRJO_7El-1" target="HhmTPI4ILTJ7aRJO_7El-13">
          <mxGeometry relative="1" as="geometry" />
        </mxCell>
        <mxCell id="HhmTPI4ILTJ7aRJO_7El-1" value="Git" style="rounded=0;whiteSpace=wrap;html=1;" vertex="1" parent="1">
          <mxGeometry x="970" y="310" width="150" height="80" as="geometry" />
        </mxCell>
        <mxCell id="HhmTPI4ILTJ7aRJO_7El-5" style="edgeStyle=orthogonalEdgeStyle;rounded=0;orthogonalLoop=1;jettySize=auto;html=1;dashed=1;" edge="1" parent="1" source="HhmTPI4ILTJ7aRJO_7El-3" target="HhmTPI4ILTJ7aRJO_7El-4">
          <mxGeometry relative="1" as="geometry" />
        </mxCell>
        <mxCell id="HhmTPI4ILTJ7aRJO_7El-11" value="" style="edgeStyle=orthogonalEdgeStyle;rounded=0;orthogonalLoop=1;jettySize=auto;html=1;" edge="1" parent="1" source="HhmTPI4ILTJ7aRJO_7El-3" target="HhmTPI4ILTJ7aRJO_7El-9">
          <mxGeometry relative="1" as="geometry" />
        </mxCell>
        <mxCell id="HhmTPI4ILTJ7aRJO_7El-3" value="" style="fontColor=#0066CC;verticalAlign=top;verticalLabelPosition=bottom;labelPosition=center;align=center;html=1;outlineConnect=0;fillColor=#CCCCCC;strokeColor=#6881B3;gradientColor=none;gradientDirection=north;strokeWidth=2;shape=mxgraph.networks.pc;" vertex="1" parent="1">
          <mxGeometry x="570" y="440" width="100" height="70" as="geometry" />
        </mxCell>
        <mxCell id="HhmTPI4ILTJ7aRJO_7El-4" value="" style="sketch=0;outlineConnect=0;fontColor=#232F3E;gradientColor=none;fillColor=#232F3D;strokeColor=none;dashed=0;verticalLabelPosition=bottom;verticalAlign=top;align=center;html=1;fontSize=12;fontStyle=0;aspect=fixed;pointerEvents=1;shape=mxgraph.aws4.source_code;" vertex="1" parent="1">
          <mxGeometry x="591.5" y="540" width="57" height="78" as="geometry" />
        </mxCell>
        <mxCell id="HhmTPI4ILTJ7aRJO_7El-8" value="1. commit&lt;br&gt;store in pc (git)" style="text;html=1;align=center;verticalAlign=middle;whiteSpace=wrap;rounded=0;" vertex="1" parent="1">
          <mxGeometry x="750" y="375" width="100" height="30" as="geometry" />
        </mxCell>
        <mxCell id="HhmTPI4ILTJ7aRJO_7El-12" style="edgeStyle=orthogonalEdgeStyle;rounded=0;orthogonalLoop=1;jettySize=auto;html=1;entryX=0;entryY=0.5;entryDx=0;entryDy=0;" edge="1" parent="1" source="HhmTPI4ILTJ7aRJO_7El-9" target="HhmTPI4ILTJ7aRJO_7El-1">
          <mxGeometry relative="1" as="geometry" />
        </mxCell>
        <mxCell id="HhmTPI4ILTJ7aRJO_7El-9" value="" style="sketch=0;outlineConnect=0;fontColor=#232F3E;gradientColor=none;fillColor=#232F3D;strokeColor=none;dashed=0;verticalLabelPosition=bottom;verticalAlign=top;align=center;html=1;fontSize=12;fontStyle=0;aspect=fixed;pointerEvents=1;shape=mxgraph.aws4.source_code;" vertex="1" parent="1">
          <mxGeometry x="780" y="420" width="57" height="78" as="geometry" />
        </mxCell>
        <mxCell id="HhmTPI4ILTJ7aRJO_7El-13" value="GitHub" style="rounded=0;whiteSpace=wrap;html=1;" vertex="1" parent="1">
          <mxGeometry x="1290" y="325" width="150" height="80" as="geometry" />
        </mxCell>
        <mxCell id="HhmTPI4ILTJ7aRJO_7El-15" value="2. push to git" style="text;html=1;align=center;verticalAlign=middle;whiteSpace=wrap;rounded=0;" vertex="1" parent="1">
          <mxGeometry x="770" y="600" width="100" height="30" as="geometry" />
        </mxCell>
        <mxCell id="HhmTPI4ILTJ7aRJO_7El-16" value="&lt;span style=&quot;background-color: initial;&quot;&gt;3. see in GitHub&lt;/span&gt;" style="text;html=1;align=center;verticalAlign=middle;whiteSpace=wrap;rounded=0;" vertex="1" parent="1">
          <mxGeometry x="1160" y="310" width="100" height="30" as="geometry" />
        </mxCell>
        <mxCell id="HhmTPI4ILTJ7aRJO_7El-21" style="edgeStyle=orthogonalEdgeStyle;rounded=0;orthogonalLoop=1;jettySize=auto;html=1;" edge="1" parent="1" source="HhmTPI4ILTJ7aRJO_7El-18" target="HhmTPI4ILTJ7aRJO_7El-1">
          <mxGeometry relative="1" as="geometry" />
        </mxCell>
        <mxCell id="HhmTPI4ILTJ7aRJO_7El-18" value="" style="ellipse;shape=cloud;whiteSpace=wrap;html=1;" vertex="1" parent="1">
          <mxGeometry x="930" y="580" width="120" height="80" as="geometry" />
        </mxCell>
        <mxCell id="HhmTPI4ILTJ7aRJO_7El-19" style="edgeStyle=orthogonalEdgeStyle;rounded=0;orthogonalLoop=1;jettySize=auto;html=1;entryX=0.181;entryY=0.756;entryDx=0;entryDy=0;entryPerimeter=0;" edge="1" parent="1" source="HhmTPI4ILTJ7aRJO_7El-3" target="HhmTPI4ILTJ7aRJO_7El-18">
          <mxGeometry relative="1" as="geometry">
            <Array as="points">
              <mxPoint x="720" y="475" />
              <mxPoint x="720" y="641" />
            </Array>
          </mxGeometry>
        </mxCell>
        <mxCell id="HhmTPI4ILTJ7aRJO_7El-20" value="" style="sketch=0;outlineConnect=0;fontColor=#232F3E;gradientColor=none;fillColor=#232F3D;strokeColor=none;dashed=0;verticalLabelPosition=bottom;verticalAlign=top;align=center;html=1;fontSize=12;fontStyle=0;aspect=fixed;pointerEvents=1;shape=mxgraph.aws4.source_code;" vertex="1" parent="1">
          <mxGeometry x="1050" y="546" width="57" height="78" as="geometry" />
        </mxCell>
        <mxCell id="HhmTPI4ILTJ7aRJO_7El-22" value="0. add" style="text;html=1;align=center;verticalAlign=middle;whiteSpace=wrap;rounded=0;" vertex="1" parent="1">
          <mxGeometry x="750" y="340" width="100" height="30" as="geometry" />
        </mxCell>
        <mxCell id="HhmTPI4ILTJ7aRJO_7El-26" style="edgeStyle=orthogonalEdgeStyle;rounded=0;orthogonalLoop=1;jettySize=auto;html=1;endArrow=none;endFill=0;" edge="1" parent="1" source="HhmTPI4ILTJ7aRJO_7El-23" target="HhmTPI4ILTJ7aRJO_7El-25">
          <mxGeometry relative="1" as="geometry" />
        </mxCell>
        <mxCell id="HhmTPI4ILTJ7aRJO_7El-23" value="" style="rounded=0;whiteSpace=wrap;html=1;" vertex="1" parent="1">
          <mxGeometry x="960" y="80" width="150" height="80" as="geometry" />
        </mxCell>
        <mxCell id="HhmTPI4ILTJ7aRJO_7El-24" value="Repo" style="text;html=1;align=center;verticalAlign=middle;resizable=0;points=[];autosize=1;strokeColor=none;fillColor=none;" vertex="1" parent="1">
          <mxGeometry x="1010" y="105" width="50" height="30" as="geometry" />
        </mxCell>
        <mxCell id="s3NHzKdMCre7f-GKbObA-22" style="edgeStyle=orthogonalEdgeStyle;rounded=0;orthogonalLoop=1;jettySize=auto;html=1;" edge="1" parent="1" source="s3NHzKdMCre7f-GKbObA-1" target="s3NHzKdMCre7f-GKbObA-21">
          <mxGeometry relative="1" as="geometry" />
        </mxCell>
        <mxCell id="s3NHzKdMCre7f-GKbObA-24" style="edgeStyle=orthogonalEdgeStyle;rounded=0;orthogonalLoop=1;jettySize=auto;html=1;entryX=0.5;entryY=1;entryDx=0;entryDy=0;exitX=0.458;exitY=1.008;exitDx=0;exitDy=0;exitPerimeter=0;dashed=1;" edge="1" parent="1" source="s3NHzKdMCre7f-GKbObA-1" target="s3NHzKdMCre7f-GKbObA-8">
          <mxGeometry relative="1" as="geometry">
            <Array as="points">
              <mxPoint x="695" y="1270" />
              <mxPoint x="1450" y="1270" />
            </Array>
          </mxGeometry>
        </mxCell>
        <mxCell id="s3NHzKdMCre7f-GKbObA-1" value="commit B" style="rounded=0;whiteSpace=wrap;html=1;" vertex="1" parent="1">
          <mxGeometry x="640" y="1127.5" width="120" height="60" as="geometry" />
        </mxCell>
        <mxCell id="s3NHzKdMCre7f-GKbObA-5" style="edgeStyle=orthogonalEdgeStyle;rounded=0;orthogonalLoop=1;jettySize=auto;html=1;" edge="1" parent="1" source="s3NHzKdMCre7f-GKbObA-2" target="s3NHzKdMCre7f-GKbObA-1">
          <mxGeometry relative="1" as="geometry" />
        </mxCell>
        <mxCell id="s3NHzKdMCre7f-GKbObA-2" value="commit A" style="rounded=0;whiteSpace=wrap;html=1;" vertex="1" parent="1">
          <mxGeometry x="475.75" y="1140" width="120" height="60" as="geometry" />
        </mxCell>
        <mxCell id="s3NHzKdMCre7f-GKbObA-4" style="edgeStyle=orthogonalEdgeStyle;rounded=0;orthogonalLoop=1;jettySize=auto;html=1;" edge="1" parent="1" source="s3NHzKdMCre7f-GKbObA-3" target="s3NHzKdMCre7f-GKbObA-2">
          <mxGeometry relative="1" as="geometry" />
        </mxCell>
        <mxCell id="s3NHzKdMCre7f-GKbObA-3" value="main" style="ellipse;whiteSpace=wrap;html=1;" vertex="1" parent="1">
          <mxGeometry x="650" y="980" width="120" height="80" as="geometry" />
        </mxCell>
        <mxCell id="s3NHzKdMCre7f-GKbObA-7" style="edgeStyle=orthogonalEdgeStyle;rounded=0;orthogonalLoop=1;jettySize=auto;html=1;entryX=1;entryY=0.5;entryDx=0;entryDy=0;dashed=1;dashPattern=8 8;" edge="1" parent="1" source="s3NHzKdMCre7f-GKbObA-6" target="s3NHzKdMCre7f-GKbObA-3">
          <mxGeometry relative="1" as="geometry" />
        </mxCell>
        <mxCell id="s3NHzKdMCre7f-GKbObA-14" style="edgeStyle=orthogonalEdgeStyle;rounded=0;orthogonalLoop=1;jettySize=auto;html=1;" edge="1" parent="1" source="s3NHzKdMCre7f-GKbObA-6" target="s3NHzKdMCre7f-GKbObA-11">
          <mxGeometry relative="1" as="geometry" />
        </mxCell>
        <mxCell id="s3NHzKdMCre7f-GKbObA-6" value="ethan-test" style="ellipse;whiteSpace=wrap;html=1;" vertex="1" parent="1">
          <mxGeometry x="1040" y="930" width="120" height="80" as="geometry" />
        </mxCell>
        <mxCell id="s3NHzKdMCre7f-GKbObA-8" value="commit C" style="rounded=0;whiteSpace=wrap;html=1;" vertex="1" parent="1">
          <mxGeometry x="1390" y="1120" width="120" height="60" as="geometry" />
        </mxCell>
        <mxCell id="s3NHzKdMCre7f-GKbObA-13" style="edgeStyle=orthogonalEdgeStyle;rounded=0;orthogonalLoop=1;jettySize=auto;html=1;" edge="1" parent="1" source="s3NHzKdMCre7f-GKbObA-10" target="s3NHzKdMCre7f-GKbObA-8">
          <mxGeometry relative="1" as="geometry" />
        </mxCell>
        <mxCell id="s3NHzKdMCre7f-GKbObA-10" value="commit B" style="rounded=0;whiteSpace=wrap;html=1;" vertex="1" parent="1">
          <mxGeometry x="1208.5" y="1120" width="120" height="60" as="geometry" />
        </mxCell>
        <mxCell id="s3NHzKdMCre7f-GKbObA-12" style="edgeStyle=orthogonalEdgeStyle;rounded=0;orthogonalLoop=1;jettySize=auto;html=1;" edge="1" parent="1" source="s3NHzKdMCre7f-GKbObA-11" target="s3NHzKdMCre7f-GKbObA-10">
          <mxGeometry relative="1" as="geometry" />
        </mxCell>
        <mxCell id="s3NHzKdMCre7f-GKbObA-11" value="commit A" style="rounded=0;whiteSpace=wrap;html=1;" vertex="1" parent="1">
          <mxGeometry x="1040" y="1120" width="120" height="60" as="geometry" />
        </mxCell>
        <mxCell id="s3NHzKdMCre7f-GKbObA-16" value="main" style="text;html=1;align=center;verticalAlign=middle;whiteSpace=wrap;rounded=0;" vertex="1" parent="1">
          <mxGeometry x="1230" y="1085" width="60" height="30" as="geometry" />
        </mxCell>
        <mxCell id="s3NHzKdMCre7f-GKbObA-17" value="Actor" style="shape=umlActor;verticalLabelPosition=bottom;verticalAlign=top;html=1;outlineConnect=0;" vertex="1" parent="1">
          <mxGeometry x="730" y="880" width="30" height="60" as="geometry" />
        </mxCell>
        <mxCell id="s3NHzKdMCre7f-GKbObA-20" value="merge" style="text;html=1;align=center;verticalAlign=middle;whiteSpace=wrap;rounded=0;" vertex="1" parent="1">
          <mxGeometry x="1050" y="1300" width="60" height="30" as="geometry" />
        </mxCell>
        <mxCell id="s3NHzKdMCre7f-GKbObA-21" value="commit C" style="rounded=0;whiteSpace=wrap;html=1;" vertex="1" parent="1">
          <mxGeometry x="820" y="1100" width="120" height="60" as="geometry" />
        </mxCell>
      </root>
    </mxGraphModel>
  </diagram>
</mxfile>
